<?xml version="1.0" standalone="no"?>
<!DOCTYPE svg PUBLIC "-//W3C//DTD SVG 20010904//EN"
 "http://www.w3.org/TR/2001/REC-SVG-20010904/DTD/svg10.dtd">
<svg version="1.0" xmlns="http://www.w3.org/2000/svg"
 width="1200.000000pt" height="1200.000000pt" viewBox="0 0 1200.000000 1200.000000"
 preserveAspectRatio="xMidYMid meet">
<metadata>
Created by potrace 1.11, written by Peter Selinger 2001-2013
</metadata>
<g transform="translate(0.000000,1200.000000) scale(0.100000,-0.100000)"
fill="#000000" stroke="none">
<path d="M5165 11889 c-1052 -67 -2066 -443 -2904 -1077 -209 -158 -366 -296
-571 -501 -458 -458 -818 -972 -1076 -1533 -292 -634 -450 -1261 -494 -1958
-6 -107 -10 -1290 -10 -3393 0 -3514 -4 -3268 55 -3295 34 -16 6393 -17 6645
-2 1312 82 2508 610 3444 1520 848 824 1398 1894 1575 3061 59 386 55 140 58
3774 3 2516 1 3337 -8 3358 -26 62 238 57 -3326 56 -1792 -1 -3316 -6 -3388
-10z m1281 -2264 c343 -36 724 -132 1011 -254 l65 -28 55 33 c139 84 326 63
452 -51 51 -47 107 -157 116 -230 9 -68 -8 -162 -40 -225 -29 -56 -121 -145
-178 -170 -183 -81 -402 -7 -495 167 -33 63 -56 167 -47 206 6 23 1 27 -97 65
-279 109 -548 175 -873 214 -149 17 -552 14 -715 -6 -759 -94 -1435 -421
-1965 -951 -623 -624 -974 -1464 -975 -2332 l0 -133 -142 0 -141 0 7 194 c10
298 43 548 107 801 323 1282 1326 2285 2609 2610 189 48 362 77 590 98 110 11
525 5 656 -8z m-4152 -886 c172 -46 318 -201 355 -377 41 -197 -45 -405 -213
-514 -86 -55 -171 -79 -283 -79 l-91 0 -30 -72 c-383 -933 -420 -2024 -102
-2987 102 -306 273 -672 438 -936 297 -477 693 -901 1154 -1237 343 -249 773
-469 1188 -607 384 -127 752 -191 1210 -212 l265 -12 -1 -81 c0 -44 -1 -108
-2 -142 l-2 -63 -137 0 c-686 1 -1398 168 -2019 474 -470 231 -839 494 -1212
860 -542 533 -935 1167 -1168 1884 -329 1014 -293 2128 101 3133 l57 146 -41
58 c-57 81 -82 154 -88 255 -9 143 35 266 129 366 131 138 311 190 492 143z
m4126 -74 c469 -65 900 -246 1270 -534 112 -87 303 -272 402 -391 171 -203
351 -513 443 -764 222 -604 213 -1299 -24 -1880 l-39 -96 20 -52 c24 -63 21
-164 -6 -215 -42 -82 -114 -136 -211 -157 -112 -25 -259 63 -298 178 -56 165
31 319 205 365 l62 16 33 83 c102 254 154 540 154 847 1 379 -74 703 -240
1040 -122 246 -238 410 -431 609 -193 199 -386 339 -640 465 -318 157 -611
230 -993 247 l-167 7 0 130 0 130 173 -6 c94 -4 224 -13 287 -22z m-483 -91
c-3 -3 -12 -4 -19 -1 -8 3 -5 6 6 6 11 1 17 -2 13 -5z m-94 -11 c-7 -2 -21 -2
-30 0 -10 3 -4 5 12 5 17 0 24 -2 18 -5z m-90 -10 c-7 -2 -19 -2 -25 0 -7 3
-2 5 12 5 14 0 19 -2 13 -5z m-76 -9 c-3 -3 -12 -4 -19 -1 -8 3 -5 6 6 6 11 1
17 -2 13 -5z m-50 -10 c-3 -3 -12 -4 -19 -1 -8 3 -5 6 6 6 11 1 17 -2 13 -5z
m-100 -20 c-3 -3 -12 -4 -19 -1 -8 3 -5 6 6 6 11 1 17 -2 13 -5z m-997 -468
c0 -2 -8 -10 -17 -17 -16 -13 -17 -12 -4 4 13 16 21 21 21 13z m-50 -39 c0 -2
-10 -12 -22 -23 l-23 -19 19 23 c18 21 26 27 26 19z m-70 -60 c0 -1 -51 -52
-112 -112 l-113 -110 110 113 c102 104 115 117 115 109z m-240 -250 c0 -2 -10
-12 -22 -23 l-23 -19 19 23 c18 21 26 27 26 19z m-50 -61 c0 -2 -8 -10 -17
-17 -16 -13 -17 -12 -4 4 13 16 21 21 21 13z m-30 -40 c0 -2 -8 -10 -17 -17
-16 -13 -17 -12 -4 4 13 16 21 21 21 13z m2250 -22 c122 -20 301 -79 421 -139
148 -74 263 -159 389 -285 179 -178 291 -361 370 -599 146 -441 81 -913 -181
-1311 -86 -130 -280 -324 -415 -413 -173 -114 -376 -197 -577 -234 -139 -26
-419 -23 -553 5 -616 132 -1064 580 -1196 1196 -28 134 -31 414 -5 553 37 201
120 404 234 577 89 135 283 329 413 415 333 219 707 299 1100 235z m-2703
-916 c-3 -8 -6 -5 -6 6 -1 11 2 17 5 13 3 -3 4 -12 1 -19z m-20 -90 c-3 -8 -6
-5 -6 6 -1 11 2 17 5 13 3 -3 4 -12 1 -19z m-10 -50 c-3 -8 -6 -5 -6 6 -1 11
2 17 5 13 3 -3 4 -12 1 -19z m-10 -60 c-3 -8 -6 -5 -6 6 -1 11 2 17 5 13 3 -3
4 -12 1 -19z m-10 -70 c-3 -7 -5 -2 -5 12 0 14 2 19 5 13 2 -7 2 -19 0 -25z
m-10 -95 c-3 -10 -5 -2 -5 17 0 19 2 27 5 18 2 -10 2 -26 0 -35z m-10 -300
c-1 -43 -3 -10 -3 72 0 83 2 118 3 78 2 -40 2 -107 0 -150z m10 -190 c-3 -10
-5 -2 -5 17 0 19 2 27 5 18 2 -10 2 -26 0 -35z m10 -75 c-3 -8 -6 -5 -6 6 -1
11 2 17 5 13 3 -3 4 -12 1 -19z m10 -70 c-3 -8 -6 -5 -6 6 -1 11 2 17 5 13 3
-3 4 -12 1 -19z m10 -60 c-3 -8 -6 -5 -6 6 -1 11 2 17 5 13 3 -3 4 -12 1 -19z
m10 -50 c-3 -8 -6 -5 -6 6 -1 11 2 17 5 13 3 -3 4 -12 1 -19z m193 -563 c0 -5
-5 -3 -10 5 -5 8 -10 20 -10 25 0 6 5 3 10 -5 5 -8 10 -19 10 -25z m311 -492
c13 -16 12 -17 -3 -4 -10 7 -18 15 -18 17 0 8 8 3 21 -13z m3929 13 c0 -2 -8
-10 -17 -17 -16 -13 -17 -12 -4 4 13 16 21 21 21 13z m-3880 -71 c13 -14 21
-25 18 -25 -2 0 -15 11 -28 25 -13 14 -21 25 -18 25 2 0 15 -11 28 -25z m3840
22 c0 -2 -12 -14 -27 -28 l-28 -24 24 28 c23 25 31 32 31 24z m-3705 -167 c49
-49 87 -90 85 -90 -3 0 -46 41 -95 90 -49 50 -87 90 -85 90 3 0 46 -40 95 -90z
m3635 87 c0 -1 -42 -43 -92 -92 l-93 -90 90 93 c83 85 95 97 95 89z m-3490
-222 c13 -14 21 -25 18 -25 -2 0 -15 11 -28 25 -13 14 -21 25 -18 25 2 0 15
-11 28 -25z m3280 22 c0 -2 -12 -14 -27 -28 l-28 -24 24 28 c23 25 31 32 31
24z m-3219 -74 c13 -16 12 -17 -3 -4 -17 13 -22 21 -14 21 2 0 10 -8 17 -17z
m3149 13 c0 -2 -8 -10 -17 -17 -16 -13 -17 -12 -4 4 13 16 21 21 21 13z
m-2670 -311 c14 -8 21 -14 15 -14 -5 0 -21 6 -35 14 -14 8 -20 14 -15 14 6 0
21 -6 35 -14z m2190 0 c-14 -8 -29 -14 -35 -14 -5 0 1 6 15 14 14 8 30 14 35
14 6 0 -1 -6 -15 -14z m-1643 -191 c-3 -3 -12 -4 -19 -1 -8 3 -5 6 6 6 11 1
17 -2 13 -5z m1100 0 c-3 -3 -12 -4 -19 -1 -8 3 -5 6 6 6 11 1 17 -2 13 -5z
m-1000 -20 c-3 -3 -12 -4 -19 -1 -8 3 -5 6 6 6 11 1 17 -2 13 -5z m900 0 c-3
-3 -12 -4 -19 -1 -8 3 -5 6 6 6 11 1 17 -2 13 -5z m-844 -11 c-7 -2 -19 -2
-25 0 -7 3 -2 5 12 5 14 0 19 -2 13 -5z m790 0 c-7 -2 -19 -2 -25 0 -7 3 -2 5
12 5 14 0 19 -2 13 -5z m-720 -10 c-7 -2 -19 -2 -25 0 -7 3 -2 5 12 5 14 0 19
-2 13 -5z m650 0 c-7 -2 -19 -2 -25 0 -7 3 -2 5 12 5 14 0 19 -2 13 -5z m-555
-10 c-10 -2 -26 -2 -35 0 -10 3 -2 5 17 5 19 0 27 -2 18 -5z m470 0 c-10 -2
-26 -2 -35 0 -10 3 -2 5 17 5 19 0 27 -2 18 -5z m-186 -10 c-40 -2 -103 -2
-140 0 -37 2 -4 3 73 3 77 0 107 -2 67 -3z"/>
</g>
</svg>
